<svg id="Capa_1" data-name="Capa 1" xmlns="http://www.w3.org/2000/svg" viewBox="0 0 407.53 95"><title>Marqués de Sidney - Logo</title><path d="M39.33,44.11a.53.53,0,0,1-.59.58H35.35c-.38,0-.54-.21-.54-.58V22.91l-.05-.21a.53.53,0,0,0-.92-.37L22.28,33.05a.52.52,0,0,1-.37.17H18.26a.54.54,0,0,1-.38-.13L5.65,22.2a.57.57,0,0,0-1,.42V44.19c0,.38-.21.55-.59.55H.71c-.38,0-.58-.17-.58-.55V13.82c0-.37.2-.54.58-.54H4.1c.38,0,.59.17.59.54A3.6,3.6,0,0,0,5,15.46v.25L19.56,28.65a.5.5,0,0,0,.38.17h.21a.49.49,0,0,0,.37-.17l14-13,0-.34a2.15,2.15,0,0,0,.29-1.46.55.55,0,0,1,.59-.55h3.39a.6.6,0,0,1,.59.59Zm29.87-6.7a17.21,17.21,0,0,1,1,7c0,.25-.12.38-.41.38H66.1c-.3,0-.42-.13-.42-.38A12.49,12.49,0,0,0,65,39.25c-.21-.46-.38-1-.67-1.51a.32.32,0,0,0-.34-.25H50.22c-.21,0-.33.08-.37.25-.3.55-.46,1-.67,1.51a16.34,16.34,0,0,0-.67,5.11c0,.12-.09.12-.21.25l-.17.13-3.77-.05a.33.33,0,0,1-.38-.37,17.22,17.22,0,0,1,1-6.91c1.09-2.39,2.68-6.12,4.31-9.93C51.65,22,54.12,16.3,54.83,14.66l.5-1.13a.46.46,0,0,1,.38-.21h2.81a.34.34,0,0,1,.33.21l.5,1.13c.72,1.64,3.23,7.33,5.57,12.82Zm-7.5-4.49a.36.36,0,0,0,.33-.54c-.46-1-.83-2.05-1.29-3.1-1.14-2.68-2.31-5.36-3.27-7.58a.41.41,0,0,0-.76,0l-3.22,7.54c-.46,1.13-.88,2.13-1.34,3.14a.38.38,0,0,0,.38.54Zm72,8.21V44a.65.65,0,0,1-.71.72h-3.14a.74.74,0,0,1-.72-.72V41.09a4.91,4.91,0,0,0-.67-2.18l-.08-.08L123,32.92a.72.72,0,0,0-.5-.21H78.16a.58.58,0,0,0-.67.67V44a.68.68,0,0,1-.71.72H73.64a.65.65,0,0,1-.71-.72V14a.68.68,0,0,1,.71-.71h50.55a8.66,8.66,0,0,1,8.8,8.5v2.43a8.24,8.24,0,0,1-4.1,7.16.73.73,0,0,0-.17,1.09l3.1,3.44a1.13,1.13,0,0,1,.29.33A9.77,9.77,0,0,1,133.66,41.13ZM77.49,27.44c0,.46.21.71.67.71h46a4.08,4.08,0,0,0,4.23-3.94V21.78a4.08,4.08,0,0,0-4.23-3.94h-46c-.46,0-.67.21-.67.68ZM185.94,36a8.36,8.36,0,0,1-1.51,4.82.5.5,0,0,0,0,.59l.88,1.17a.42.42,0,0,1-.08.67l-2.81,2a.52.52,0,0,1-.71-.08l-.8-1a.47.47,0,0,0-.59-.16,8.08,8.08,0,0,1-3.43.67H147A8.89,8.89,0,0,1,138,36V22.08A8.89,8.89,0,0,1,147,13.36h29.86a8.9,8.9,0,0,1,9.05,8.72Zm-13.45-2.85a.47.47,0,0,1,.09-.67l2.8-2.17a.57.57,0,0,1,.71.12l4.44,5.87a.49.49,0,0,0,.88-.3V22.08a4.4,4.4,0,0,0-4.52-4.24H147a4.43,4.43,0,0,0-4.53,4.24V36A4.39,4.39,0,0,0,147,40.21h29.86a6.54,6.54,0,0,0,.88-.08Zm26.1,11.52A8.89,8.89,0,0,1,189.5,36V13.82a.42.42,0,0,1,.46-.46h3.6a.42.42,0,0,1,.46.46V36a4.4,4.4,0,0,0,4.57,4.19h4A4.39,4.39,0,0,0,207.13,36V13.82a.42.42,0,0,1,.47-.46h3.6a.42.42,0,0,1,.46.46V36a8.89,8.89,0,0,1-9.09,8.71Zm21.57-16.46c0,.38.17.55.55.55h44.73a.44.44,0,0,1,.5.5v3.43c0,.38-.16.55-.5.55H220.71c-.38,0-.55.17-.55.54v5.91c0,.38.17.54.55.54h49.38c.38,0,.54.17.54.51v3.43c0,.38-.16.55-.54.55H216.23c-.38,0-.55-.17-.55-.55V14c0-.37.17-.54.55-.54h53.86c.38,0,.54.17.54.54v3.44c0,.33-.16.5-.54.5H220.71c-.38,0-.55.17-.55.55Zm65,16.51A8.94,8.94,0,0,1,276.08,36V34.35c0-.38.17-.55.55-.55h3.43c.38,0,.55.17.55.55V36a4.4,4.4,0,0,0,4.56,4.23h47.12A4.4,4.4,0,0,0,336.86,36a6.84,6.84,0,0,0-.46-1.93.5.5,0,0,0-.46-.29L279.1,28.32l-.13-.09c-2.09-1.38-2.89-4.77-2.89-6.2a8.93,8.93,0,0,1,9.09-8.75h47.12A8.93,8.93,0,0,1,341.38,22v1.55c0,.38-.17.59-.54.59h-3.4a.53.53,0,0,1-.58-.59V22a4.4,4.4,0,0,0-4.57-4.19H285.17A4.4,4.4,0,0,0,280.61,22a4.91,4.91,0,0,0,.5,2,.63.63,0,0,0,.46.34l56.8,5.4.16.08c2.26,1.14,2.85,4.7,2.85,6.16a8.94,8.94,0,0,1-9.09,8.76ZM.42,95C.13,95,0,94.88,0,94.58V64.05c0-.3.13-.46.42-.46H12.9A8.57,8.57,0,0,1,21.57,72V86.62A8.49,8.49,0,0,1,12.9,95Zm4.1-4.94c0,.29.13.42.42.42h8a4,4,0,0,0,4.15-3.86V72a4,4,0,0,0-4.15-3.85h-8c-.29,0-.42.17-.42.46ZM29.57,78.5A.42.42,0,0,0,30,79h10.6c.29,0,.46.12.46.42V83a.42.42,0,0,1-.46.46H30c-.29,0-.46.13-.46.42V90a.42.42,0,0,0,.46.46H45.32c.29,0,.46.12.46.42v3.64a.42.42,0,0,1-.46.46H25.51c-.29,0-.42-.17-.42-.46V64.05c0-.3.13-.42.42-.42H45.32c.29,0,.46.12.46.42v3.64c0,.29-.17.42-.46.42H30a.42.42,0,0,0-.46.46ZM70.87,95a8.94,8.94,0,0,1-9.09-8.75V84.61c0-.37.17-.54.55-.54h3.43c.38,0,.55.17.55.54v1.64a4.41,4.41,0,0,0,4.56,4.23H118a4.41,4.41,0,0,0,4.57-4.23,6.68,6.68,0,0,0-.46-1.93.49.49,0,0,0-.46-.29L64.8,78.58l-.13-.08c-2.09-1.38-2.89-4.78-2.89-6.2a8.94,8.94,0,0,1,9.09-8.76H118a8.94,8.94,0,0,1,9.09,8.76v1.55c0,.38-.16.59-.54.59h-3.39a.53.53,0,0,1-.59-.59V72.3A4.4,4.4,0,0,0,118,68.11H70.87a4.4,4.4,0,0,0-4.56,4.19,5,5,0,0,0,.5,2,.62.62,0,0,0,.46.33L124.07,80l.16.08c2.27,1.13,2.85,4.69,2.85,6.16A8.93,8.93,0,0,1,118,95Zm88-5a.49.49,0,0,0,.5.51H182a.42.42,0,0,1,.46.46v3.6A.42.42,0,0,1,182,95h-50.6a.42.42,0,0,1-.46-.46v-3.6a.42.42,0,0,1,.46-.46h22.58a.46.46,0,0,0,.46-.51V68.66c0-.34-.17-.51-.46-.51H131.36a.42.42,0,0,1-.46-.46v-3.6a.42.42,0,0,1,.46-.46H182a.42.42,0,0,1,.46.46v3.6a.42.42,0,0,1-.46.46H159.42a.49.49,0,0,0-.5.51Zm28,5a.42.42,0,0,1-.46-.46V64.05c0-.3.17-.42.46-.42H264A8.51,8.51,0,0,1,272.64,72V86.62A8.49,8.49,0,0,1,264,95ZM191,90a.42.42,0,0,0,.46.46H264a4,4,0,0,0,4.15-3.86V72A3.94,3.94,0,0,0,264,68.15H191.43c-.3,0-.46.13-.46.42ZM324.5,94.5c0,.17-.17.25-.29.38L324,95h-3.44c-.33,0-.54-.12-.58-.42a3.88,3.88,0,0,0-.38-1.92l-.17-.13L282.53,71.88a.54.54,0,0,0-.84.46V94.46c0,.16-.16.25-.29.37l-.25.17h-3.43c-.38,0-.55-.17-.55-.54V64.17c0-.37.17-.54.55-.54h3.43c.38,0,.54.17.54.54a4.49,4.49,0,0,0,.59,2.39l.17.13,36.69,20.56a.54.54,0,0,0,.84-.46V64.09c0-.38.17-.55.54-.55H324c.37,0,.54.17.54.55Zm7.29-16c0,.38.17.54.55.54h44.73a.44.44,0,0,1,.5.51V83c0,.38-.16.54-.5.54H332.34c-.38,0-.55.17-.55.55V90c0,.38.17.55.55.55h49.38c.38,0,.54.17.54.5v3.44c0,.37-.16.54-.54.54H327.86c-.38,0-.55-.17-.55-.54V64.3c0-.38.17-.55.55-.55h53.86c.38,0,.54.17.54.55v3.43c0,.34-.16.51-.54.51H332.34c-.38,0-.55.16-.55.54Zm75.27-14.91c.38,0,.51.16.46.46a11.47,11.47,0,0,1-1,4.86l-4.1,6.57c-1.22,1.93-2.18,3.56-2.81,4.53a1.57,1.57,0,0,0-.08.25V94.5a.42.42,0,0,1-.46.46H395.5a.42.42,0,0,1-.46-.46V80.26A1.57,1.57,0,0,0,395,80c-.63-1-1.63-2.56-2.81-4.53-1.46-2.39-3.06-5.11-4.06-6.57a9.62,9.62,0,0,1-1-4.82c0-.34.17-.5.46-.5h3.61a.42.42,0,0,1,.46.46,7.45,7.45,0,0,0,.25,2.39c1,1.54,2.72,4.27,4.19,6.65l.88,1.43a.44.44,0,0,0,.79,0l.88-1.43c1.47-2.38,3.14-5.11,4.15-6.65a16.54,16.54,0,0,0,.38-2.43c0-.3.16-.42.46-.42Zm-30.34-44.5h0A5.09,5.09,0,0,1,371.63,14h0a5.09,5.09,0,0,1-5.09,5.09h0a5.09,5.09,0,0,1,5.09,5.09h0A5.09,5.09,0,0,1,376.72,19.09Zm30.8,25.65V34.49A20.49,20.49,0,0,0,387,14h0V27a20.45,20.45,0,0,0-10.25-2.75h0v13a20.31,20.31,0,0,0-10.24-2.75h0V44.74Zm-30.8-25.65h0A5.09,5.09,0,0,1,371.63,14h0a5.09,5.09,0,0,1-5.09,5.09h0a5.09,5.09,0,0,1,5.09,5.09h0A5.09,5.09,0,0,1,376.72,19.09Zm-120.56-15L255.45,0,228.62,4.73l.72,4Z"/></svg>